<svg width="24" height="24" viewBox="0 0 24 24" fill="none" xmlns="http://www.w3.org/2000/svg">
<circle cx="12" cy="12" r="12" fill="#B3FF37"/>
<path d="M14.3224 11.112C15.5224 10.744 15.8424 9.64 15.8424 8.824C15.8424 7.16 14.5784 5.976 12.6104 5.976H8.24244V17H12.9464C15.3784 17 16.4184 15.368 16.4184 13.848C16.4184 12.6 15.7304 11.352 14.3224 11.112ZM12.4824 7.944C13.2664 7.944 13.6184 8.472 13.6184 9.144C13.6184 9.896 13.1864 10.36 12.4824 10.36H10.4664V7.944H12.4824ZM12.6264 15.032H10.4664V12.216H12.6584C13.7144 12.216 14.1784 12.936 14.1784 13.624C14.1784 14.36 13.6664 15.032 12.6264 15.032Z" fill="#2D3D4D"/>
</svg>
